<?xml version="1.0" encoding="UTF-8" standalone="no"?><!DOCTYPE svg PUBLIC "-//W3C//DTD SVG 1.1//EN" "http://www.w3.org/Graphics/SVG/1.1/DTD/svg11.dtd"><!-- Generated by graphviz version 2.40.1 (20161225.0304)
 --><!-- Title: snakemake_dag Pages: 1 --><svg xmlns="http://www.w3.org/2000/svg" xmlns:xlink="http://www.w3.org/1999/xlink" width="1501pt" height="980pt" viewBox="0.00 0.00 1501.44 980.00">
<g id="graph0" class="graph" transform="scale(1 1) rotate(0) translate(4 976)">
<title>snakemake_dag</title>
<polygon fill="#ffffff" stroke="transparent" points="-4,4 -4,-976 1497.4401,-976 1497.4401,4 -4,4"/>
<!-- 0 -->
<g id="node1" class="node">
<title>0</title>
<path fill="none" stroke="#5663d8" stroke-width="2" stroke-dasharray="5,2" d="M821.4401,-36C821.4401,-36 791.4401,-36 791.4401,-36 785.4401,-36 779.4401,-30 779.4401,-24 779.4401,-24 779.4401,-12 779.4401,-12 779.4401,-6 785.4401,0 791.4401,0 791.4401,0 821.4401,0 821.4401,0 827.4401,0 833.4401,-6 833.4401,-12 833.4401,-12 833.4401,-24 833.4401,-24 833.4401,-30 827.4401,-36 821.4401,-36"/>
<text text-anchor="middle" x="806.4401" y="-15" font-family="sans" font-size="10.00" fill="#000000">all</text>
</g>
<!-- 1 -->
<g id="node2" class="node">
<title>1</title>
<path fill="none" stroke="#80d856" stroke-width="2" stroke-dasharray="5,2" d="M651.8991,-108C651.8991,-108 584.9811,-108 584.9811,-108 578.9811,-108 572.9811,-102 572.9811,-96 572.9811,-96 572.9811,-84 572.9811,-84 572.9811,-78 578.9811,-72 584.9811,-72 584.9811,-72 651.8991,-72 651.8991,-72 657.8991,-72 663.8991,-78 663.8991,-84 663.8991,-84 663.8991,-96 663.8991,-96 663.8991,-102 657.8991,-108 651.8991,-108"/>
<text text-anchor="middle" x="618.4401" y="-87" font-family="sans" font-size="10.00" fill="#000000">gffcompare_report</text>
</g>
<!-- 1&#45;&gt;0 -->
<g id="edge1" class="edge">
<title>1-&gt;0</title>
<path fill="none" stroke="#c0c0c0" stroke-width="2" d="M663.9496,-72.5708C696.5048,-60.1029 739.7458,-43.5425 770.0222,-31.9473"/>
<polygon fill="#c0c0c0" stroke="#c0c0c0" stroke-width="2" points="771.2799,-35.2136 779.3667,-28.3685 768.7763,-28.6766 771.2799,-35.2136"/>
</g>
<!-- 2 -->
<g id="node3" class="node">
<title>2</title>
<path fill="none" stroke="#56d873" stroke-width="2" stroke-dasharray="5,2" d="M834.9714,-108C834.9714,-108 777.9087,-108 777.9087,-108 771.9087,-108 765.9087,-102 765.9087,-96 765.9087,-96 765.9087,-84 765.9087,-84 765.9087,-78 771.9087,-72 777.9087,-72 777.9087,-72 834.9714,-72 834.9714,-72 840.9714,-72 846.9714,-78 846.9714,-84 846.9714,-84 846.9714,-96 846.9714,-96 846.9714,-102 840.9714,-108 834.9714,-108"/>
<text text-anchor="middle" x="806.4401" y="-87" font-family="sans" font-size="10.00" fill="#000000">SQANTI_report</text>
</g>
<!-- 2&#45;&gt;0 -->
<g id="edge2" class="edge">
<title>2-&gt;0</title>
<path fill="none" stroke="#c0c0c0" stroke-width="2" d="M806.4401,-71.8314C806.4401,-64.131 806.4401,-54.9743 806.4401,-46.4166"/>
<polygon fill="#c0c0c0" stroke="#c0c0c0" stroke-width="2" points="809.9402,-46.4132 806.4401,-36.4133 802.9402,-46.4133 809.9402,-46.4132"/>
</g>
<!-- 3 -->
<g id="node4" class="node">
<title>3</title>
<path fill="none" stroke="#56d882" stroke-width="2" stroke-dasharray="5,2" d="M1481.4401,-684C1481.4401,-684 1451.4401,-684 1451.4401,-684 1445.4401,-684 1439.4401,-678 1439.4401,-672 1439.4401,-672 1439.4401,-660 1439.4401,-660 1439.4401,-654 1445.4401,-648 1451.4401,-648 1451.4401,-648 1481.4401,-648 1481.4401,-648 1487.4401,-648 1493.4401,-654 1493.4401,-660 1493.4401,-660 1493.4401,-672 1493.4401,-672 1493.4401,-678 1487.4401,-684 1481.4401,-684"/>
<text text-anchor="middle" x="1466.4401" y="-663" font-family="sans" font-size="10.00" fill="#000000">RSEQC</text>
</g>
<!-- 3&#45;&gt;0 -->
<g id="edge3" class="edge">
<title>3-&gt;0</title>
<path fill="none" stroke="#c0c0c0" stroke-width="2" d="M1463.3321,-647.8777C1458.9385,-620.6417 1451.4401,-567.4948 1451.4401,-522 1451.4401,-522 1451.4401,-522 1451.4401,-162 1451.4401,-99.3094 981.3232,-38.7048 843.7999,-22.3173"/>
<polygon fill="#c0c0c0" stroke="#c0c0c0" stroke-width="2" points="844.085,-18.8267 833.7429,-21.1273 843.2624,-25.7782 844.085,-18.8267"/>
</g>
<!-- 4 -->
<g id="node5" class="node">
<title>4</title>
<path fill="none" stroke="#56d8d0" stroke-width="2" stroke-dasharray="5,2" d="M594.6193,-180C594.6193,-180 530.2609,-180 530.2609,-180 524.2609,-180 518.2609,-174 518.2609,-168 518.2609,-168 518.2609,-156 518.2609,-156 518.2609,-150 524.2609,-144 530.2609,-144 530.2609,-144 594.6193,-144 594.6193,-144 600.6193,-144 606.6193,-150 606.6193,-156 606.6193,-156 606.6193,-168 606.6193,-168 606.6193,-174 600.6193,-180 594.6193,-180"/>
<text text-anchor="middle" x="562.4401" y="-159" font-family="sans" font-size="10.00" fill="#000000">parse_gffcompare</text>
</g>
<!-- 4&#45;&gt;1 -->
<g id="edge4" class="edge">
<title>4-&gt;1</title>
<path fill="none" stroke="#c0c0c0" stroke-width="2" d="M576.5712,-143.8314C583.0212,-135.5386 590.7846,-125.557 597.8653,-116.4533"/>
<polygon fill="#c0c0c0" stroke="#c0c0c0" stroke-width="2" points="600.7419,-118.4556 604.1186,-108.4133 595.2165,-114.158 600.7419,-118.4556"/>
</g>
<!-- 5 -->
<g id="node6" class="node">
<title>5</title>
<path fill="none" stroke="#56d85b" stroke-width="2" stroke-dasharray="5,2" d="M836.1904,-180C836.1904,-180 776.6897,-180 776.6897,-180 770.6897,-180 764.6897,-174 764.6897,-168 764.6897,-168 764.6897,-156 764.6897,-156 764.6897,-150 770.6897,-144 776.6897,-144 776.6897,-144 836.1904,-144 836.1904,-144 842.1904,-144 848.1904,-150 848.1904,-156 848.1904,-156 848.1904,-168 848.1904,-168 848.1904,-174 842.1904,-180 836.1904,-180"/>
<text text-anchor="middle" x="806.4401" y="-159" font-family="sans" font-size="10.00" fill="#000000">parse_SQANTI3</text>
</g>
<!-- 5&#45;&gt;2 -->
<g id="edge5" class="edge">
<title>5-&gt;2</title>
<path fill="none" stroke="#c0c0c0" stroke-width="2" d="M806.4401,-143.8314C806.4401,-136.131 806.4401,-126.9743 806.4401,-118.4166"/>
<polygon fill="#c0c0c0" stroke="#c0c0c0" stroke-width="2" points="809.9402,-118.4132 806.4401,-108.4133 802.9402,-118.4133 809.9402,-118.4132"/>
</g>
<!-- 6 -->
<g id="node7" class="node">
<title>6</title>
<path fill="none" stroke="#d8ac56" stroke-width="2" stroke-dasharray="5,2" d="M1291.7661,-756C1291.7661,-756 1261.1141,-756 1261.1141,-756 1255.1141,-756 1249.1141,-750 1249.1141,-744 1249.1141,-744 1249.1141,-732 1249.1141,-732 1249.1141,-726 1255.1141,-720 1261.1141,-720 1261.1141,-720 1291.7661,-720 1291.7661,-720 1297.7661,-720 1303.7661,-726 1303.7661,-732 1303.7661,-732 1303.7661,-744 1303.7661,-744 1303.7661,-750 1297.7661,-756 1291.7661,-756"/>
<text text-anchor="middle" x="1276.4401" y="-735" font-family="sans" font-size="10.00" fill="#000000">sam2bam</text>
</g>
<!-- 6&#45;&gt;3 -->
<g id="edge6" class="edge">
<title>6-&gt;3</title>
<path fill="none" stroke="#c0c0c0" stroke-width="2" d="M1303.833,-728.6811C1333.8785,-718.3188 1383.4191,-700.8174 1425.4401,-684 1426.8384,-683.4404 1428.26,-682.8623 1429.6932,-682.2719"/>
<polygon fill="#c0c0c0" stroke="#c0c0c0" stroke-width="2" points="1431.3477,-685.3726 1439.199,-678.2587 1428.625,-678.9237 1431.3477,-685.3726"/>
</g>
<!-- 26 -->
<g id="node27" class="node">
<title>26</title>
<path fill="none" stroke="#d8cb56" stroke-width="2" stroke-dasharray="5,2" d="M1025.9164,-612C1025.9164,-612 960.9638,-612 960.9638,-612 954.9638,-612 948.9638,-606 948.9638,-600 948.9638,-600 948.9638,-588 948.9638,-588 948.9638,-582 954.9638,-576 960.9638,-576 960.9638,-576 1025.9164,-576 1025.9164,-576 1031.9164,-576 1037.9164,-582 1037.9164,-588 1037.9164,-588 1037.9164,-600 1037.9164,-600 1037.9164,-606 1031.9164,-612 1025.9164,-612"/>
<text text-anchor="middle" x="993.4401" y="-597" font-family="sans" font-size="10.00" fill="#000000">filter_gtf</text>
<text text-anchor="middle" x="993.4401" y="-585" font-family="sans" font-size="10.00" fill="#000000">software: stringtie</text>
</g>
<!-- 6&#45;&gt;26 -->
<g id="edge49" class="edge">
<title>6-&gt;26</title>
<path fill="none" stroke="#c0c0c0" stroke-width="2" d="M1262.9087,-719.8878C1245.034,-696.431 1214.0029,-657.427 1198.4401,-648 1141.7275,-613.6468 1115.5556,-629.5748 1047.7308,-612.1253"/>
<polygon fill="#c0c0c0" stroke="#c0c0c0" stroke-width="2" points="1048.4453,-608.6923 1037.8764,-609.4328 1046.6004,-615.4448 1048.4453,-608.6923"/>
</g>
<!-- 27 -->
<g id="node28" class="node">
<title>27</title>
<path fill="none" stroke="#d8cb56" stroke-width="2" stroke-dasharray="5,2" d="M595.1397,-396C595.1397,-396 543.7405,-396 543.7405,-396 537.7405,-396 531.7405,-390 531.7405,-384 531.7405,-384 531.7405,-372 531.7405,-372 531.7405,-366 537.7405,-360 543.7405,-360 543.7405,-360 595.1397,-360 595.1397,-360 601.1397,-360 607.1397,-366 607.1397,-372 607.1397,-372 607.1397,-384 607.1397,-384 607.1397,-390 601.1397,-396 595.1397,-396"/>
<text text-anchor="middle" x="569.4401" y="-381" font-family="sans" font-size="10.00" fill="#000000">filter_gtf</text>
<text text-anchor="middle" x="569.4401" y="-369" font-family="sans" font-size="10.00" fill="#000000">software: talon</text>
</g>
<!-- 6&#45;&gt;27 -->
<g id="edge51" class="edge">
<title>6-&gt;27</title>
<path fill="none" stroke="#c0c0c0" stroke-width="2" d="M1303.8884,-726.0409C1320.6658,-717.1108 1340.7126,-703.1406 1350.4401,-684 1363.6801,-657.948 1334.3049,-577.099 1333.4401,-576 1289.6823,-520.3918 1256.1974,-532.5219 1191.4401,-504 1108.4162,-467.4327 1088.5043,-453.7904 1000.4401,-432 864.0016,-398.24 697.7753,-385.0148 617.4564,-380.3185"/>
<polygon fill="#c0c0c0" stroke="#c0c0c0" stroke-width="2" points="617.3497,-376.8069 607.1679,-379.7364 616.9542,-383.7957 617.3497,-376.8069"/>
</g>
<!-- 28 -->
<g id="node29" class="node">
<title>28</title>
<path fill="none" stroke="#d8cb56" stroke-width="2" stroke-dasharray="5,2" d="M979.798,-468C979.798,-468 931.0822,-468 931.0822,-468 925.0822,-468 919.0822,-462 919.0822,-456 919.0822,-456 919.0822,-444 919.0822,-444 919.0822,-438 925.0822,-432 931.0822,-432 931.0822,-432 979.798,-432 979.798,-432 985.798,-432 991.798,-438 991.798,-444 991.798,-444 991.798,-456 991.798,-456 991.798,-462 985.798,-468 979.798,-468"/>
<text text-anchor="middle" x="955.4401" y="-453" font-family="sans" font-size="10.00" fill="#000000">filter_gtf</text>
<text text-anchor="middle" x="955.4401" y="-441" font-family="sans" font-size="10.00" fill="#000000">software: flair</text>
</g>
<!-- 6&#45;&gt;28 -->
<g id="edge53" class="edge">
<title>6-&gt;28</title>
<path fill="none" stroke="#c0c0c0" stroke-width="2" d="M1303.1632,-719.9104C1314.4485,-710.6439 1326.3661,-698.295 1332.4401,-684 1351.7475,-638.5604 1340.614,-611.6324 1306.4401,-576 1277.1903,-545.5019 1257.3076,-556.583 1218.4401,-540 1182.2049,-524.5401 1174.4019,-517.6317 1137.4401,-504 1092.0743,-487.2689 1038.933,-471.9798 1001.8269,-461.9746"/>
<polygon fill="#c0c0c0" stroke="#c0c0c0" stroke-width="2" points="1002.3708,-458.4972 991.8061,-459.296 1000.5631,-465.2598 1002.3708,-458.4972"/>
</g>
<!-- 29 -->
<g id="node30" class="node">
<title>29</title>
<path fill="none" stroke="#d8cb56" stroke-width="2" stroke-dasharray="5,2" d="M1285.8601,-612C1285.8601,-612 1227.02,-612 1227.02,-612 1221.02,-612 1215.02,-606 1215.02,-600 1215.02,-600 1215.02,-588 1215.02,-588 1215.02,-582 1221.02,-576 1227.02,-576 1227.02,-576 1285.8601,-576 1285.8601,-576 1291.8601,-576 1297.8601,-582 1297.8601,-588 1297.8601,-588 1297.8601,-600 1297.8601,-600 1297.8601,-606 1291.8601,-612 1285.8601,-612"/>
<text text-anchor="middle" x="1256.4401" y="-597" font-family="sans" font-size="10.00" fill="#000000">filter_gtf</text>
<text text-anchor="middle" x="1256.4401" y="-585" font-family="sans" font-size="10.00" fill="#000000">software: bambu</text>
</g>
<!-- 6&#45;&gt;29 -->
<g id="edge55" class="edge">
<title>6-&gt;29</title>
<path fill="none" stroke="#c0c0c0" stroke-width="2" d="M1294.5976,-719.7286C1302.9891,-709.9911 1312.0524,-697.2949 1316.4401,-684 1321.4545,-668.8061 1322.9495,-662.616 1316.4401,-648 1311.4067,-636.6983 1302.7096,-626.7696 1293.4742,-618.611"/>
<polygon fill="#c0c0c0" stroke="#c0c0c0" stroke-width="2" points="1295.6051,-615.8319 1285.6585,-612.1828 1291.1585,-621.2382 1295.6051,-615.8319"/>
</g>
<!-- 30 -->
<g id="node31" class="node">
<title>30</title>
<path fill="none" stroke="#70d856" stroke-width="2" stroke-dasharray="5,2" d="M991.4401,-684C991.4401,-684 961.4401,-684 961.4401,-684 955.4401,-684 949.4401,-678 949.4401,-672 949.4401,-672 949.4401,-660 949.4401,-660 949.4401,-654 955.4401,-648 961.4401,-648 961.4401,-648 991.4401,-648 991.4401,-648 997.4401,-648 1003.4401,-654 1003.4401,-660 1003.4401,-660 1003.4401,-672 1003.4401,-672 1003.4401,-678 997.4401,-684 991.4401,-684"/>
<text text-anchor="middle" x="976.4401" y="-663" font-family="sans" font-size="10.00" fill="#000000">stringtie</text>
</g>
<!-- 6&#45;&gt;30 -->
<g id="edge57" class="edge">
<title>6-&gt;30</title>
<path fill="none" stroke="#c0c0c0" stroke-width="2" d="M1248.9486,-730.6564C1236.3221,-727.3278 1221.1407,-723.3878 1207.4401,-720 1139.1909,-703.1237 1059.2496,-684.7437 1013.5548,-674.3691"/>
<polygon fill="#c0c0c0" stroke="#c0c0c0" stroke-width="2" points="1014.0481,-670.8922 1003.5218,-672.095 1012.5007,-677.719 1014.0481,-670.8922"/>
</g>
<!-- 33 -->
<g id="node34" class="node">
<title>33</title>
<path fill="none" stroke="#56c9d8" stroke-width="2" stroke-dasharray="5,2" d="M1177.4401,-684C1177.4401,-684 1147.4401,-684 1147.4401,-684 1141.4401,-684 1135.4401,-678 1135.4401,-672 1135.4401,-672 1135.4401,-660 1135.4401,-660 1135.4401,-654 1141.4401,-648 1147.4401,-648 1147.4401,-648 1177.4401,-648 1177.4401,-648 1183.4401,-648 1189.4401,-654 1189.4401,-660 1189.4401,-660 1189.4401,-672 1189.4401,-672 1189.4401,-678 1183.4401,-684 1177.4401,-684"/>
<text text-anchor="middle" x="1162.4401" y="-663" font-family="sans" font-size="10.00" fill="#000000">bambu</text>
</g>
<!-- 6&#45;&gt;33 -->
<g id="edge66" class="edge">
<title>6-&gt;33</title>
<path fill="none" stroke="#c0c0c0" stroke-width="2" d="M1249.1342,-720.7542C1233.9057,-711.1362 1214.7539,-699.0403 1198.3268,-688.6653"/>
<polygon fill="#c0c0c0" stroke="#c0c0c0" stroke-width="2" points="1199.847,-685.4858 1189.5231,-683.1051 1196.109,-691.4043 1199.847,-685.4858"/>
</g>
<!-- 40 -->
<g id="node41" class="node">
<title>40</title>
<path fill="none" stroke="#8fd856" stroke-width="2" stroke-dasharray="5,2" d="M1295.598,-684C1295.598,-684 1257.2821,-684 1257.2821,-684 1251.2821,-684 1245.2821,-678 1245.2821,-672 1245.2821,-672 1245.2821,-660 1245.2821,-660 1245.2821,-654 1251.2821,-648 1257.2821,-648 1257.2821,-648 1295.598,-648 1295.598,-648 1301.598,-648 1307.598,-654 1307.598,-660 1307.598,-660 1307.598,-672 1307.598,-672 1307.598,-678 1301.598,-684 1295.598,-684"/>
<text text-anchor="middle" x="1276.4401" y="-663" font-family="sans" font-size="10.00" fill="#000000">bam2bed12</text>
</g>
<!-- 6&#45;&gt;40 -->
<g id="edge80" class="edge">
<title>6-&gt;40</title>
<path fill="none" stroke="#c0c0c0" stroke-width="2" d="M1276.4401,-719.8314C1276.4401,-712.131 1276.4401,-702.9743 1276.4401,-694.4166"/>
<polygon fill="#c0c0c0" stroke="#c0c0c0" stroke-width="2" points="1279.9402,-694.4132 1276.4401,-684.4133 1272.9402,-694.4133 1279.9402,-694.4132"/>
</g>
<!-- 7 -->
<g id="node8" class="node">
<title>7</title>
<path fill="none" stroke="#56a9d8" stroke-width="2" stroke-dasharray="5,2" d="M1285.823,-900C1285.823,-900 1227.0572,-900 1227.0572,-900 1221.0572,-900 1215.0572,-894 1215.0572,-888 1215.0572,-888 1215.0572,-876 1215.0572,-876 1215.0572,-870 1221.0572,-864 1227.0572,-864 1227.0572,-864 1285.823,-864 1285.823,-864 1291.823,-864 1297.823,-870 1297.823,-876 1297.823,-876 1297.823,-888 1297.823,-888 1297.823,-894 1291.823,-900 1285.823,-900"/>
<text text-anchor="middle" x="1256.4401" y="-885" font-family="sans" font-size="10.00" fill="#000000">gtfToBed12</text>
<text text-anchor="middle" x="1256.4401" y="-873" font-family="sans" font-size="10.00" fill="#000000">annot: CanFam3</text>
</g>
<!-- 7&#45;&gt;3 -->
<g id="edge7" class="edge">
<title>7-&gt;3</title>
<path fill="none" stroke="#c0c0c0" stroke-width="2" d="M1273.9834,-863.9555C1311.3509,-825.5203 1398.8819,-735.4884 1441.8141,-691.3295"/>
<polygon fill="#c0c0c0" stroke="#c0c0c0" stroke-width="2" points="1444.3377,-693.7548 1448.799,-684.1451 1439.3187,-688.8753 1444.3377,-693.7548"/>
</g>
<!-- 16 -->
<g id="node17" class="node">
<title>16</title>
<path fill="none" stroke="#568ad8" stroke-width="2" stroke-dasharray="5,2" d="M1244.4401,-828C1244.4401,-828 1214.4401,-828 1214.4401,-828 1208.4401,-828 1202.4401,-822 1202.4401,-816 1202.4401,-816 1202.4401,-804 1202.4401,-804 1202.4401,-798 1208.4401,-792 1214.4401,-792 1214.4401,-792 1244.4401,-792 1244.4401,-792 1250.4401,-792 1256.4401,-798 1256.4401,-804 1256.4401,-804 1256.4401,-816 1256.4401,-816 1256.4401,-822 1250.4401,-828 1244.4401,-828"/>
<text text-anchor="middle" x="1229.4401" y="-807" font-family="sans" font-size="10.00" fill="#000000">mapping</text>
</g>
<!-- 7&#45;&gt;16 -->
<g id="edge43" class="edge">
<title>7-&gt;16</title>
<path fill="none" stroke="#c0c0c0" stroke-width="2" d="M1249.6268,-863.8314C1246.6757,-855.9617 1243.1543,-846.5712 1239.8851,-837.8533"/>
<polygon fill="#c0c0c0" stroke="#c0c0c0" stroke-width="2" points="1243.1335,-836.5476 1236.3451,-828.4133 1236.5792,-839.0055 1243.1335,-836.5476"/>
</g>
<!-- 8 -->
<g id="node9" class="node">
<title>8</title>
<path fill="none" stroke="#d85656" stroke-width="2" stroke-dasharray="5,2" d="M543.5231,-468C543.5231,-468 505.357,-468 505.357,-468 499.357,-468 493.357,-462 493.357,-456 493.357,-456 493.357,-444 493.357,-444 493.357,-438 499.357,-432 505.357,-432 505.357,-432 543.5231,-432 543.5231,-432 549.5231,-432 555.5231,-438 555.5231,-444 555.5231,-444 555.5231,-456 555.5231,-456 555.5231,-462 549.5231,-468 543.5231,-468"/>
<text text-anchor="middle" x="524.4401" y="-447" font-family="sans" font-size="10.00" fill="#000000">gffcompare</text>
</g>
<!-- 8&#45;&gt;4 -->
<g id="edge8" class="edge">
<title>8-&gt;4</title>
<path fill="none" stroke="#c0c0c0" stroke-width="2" d="M508.8876,-431.8462C501.4355,-421.947 493.3054,-409.0702 489.4401,-396 466.7528,-319.2844 453.4268,-287.4356 489.4401,-216 495.5475,-203.8853 505.7989,-193.8131 516.7177,-185.7793"/>
<polygon fill="#c0c0c0" stroke="#c0c0c0" stroke-width="2" points="518.8519,-188.5603 525.1398,-180.0331 514.9067,-182.7779 518.8519,-188.5603"/>
</g>
<!-- 9 -->
<g id="node10" class="node">
<title>9</title>
<path fill="none" stroke="#d85656" stroke-width="2" stroke-dasharray="5,2" d="M581.5231,-252C581.5231,-252 543.357,-252 543.357,-252 537.357,-252 531.357,-246 531.357,-240 531.357,-240 531.357,-228 531.357,-228 531.357,-222 537.357,-216 543.357,-216 543.357,-216 581.5231,-216 581.5231,-216 587.5231,-216 593.5231,-222 593.5231,-228 593.5231,-228 593.5231,-240 593.5231,-240 593.5231,-246 587.5231,-252 581.5231,-252"/>
<text text-anchor="middle" x="562.4401" y="-231" font-family="sans" font-size="10.00" fill="#000000">gffcompare</text>
</g>
<!-- 9&#45;&gt;4 -->
<g id="edge9" class="edge">
<title>9-&gt;4</title>
<path fill="none" stroke="#c0c0c0" stroke-width="2" d="M562.4401,-215.8314C562.4401,-208.131 562.4401,-198.9743 562.4401,-190.4166"/>
<polygon fill="#c0c0c0" stroke="#c0c0c0" stroke-width="2" points="565.9402,-190.4132 562.4401,-180.4133 558.9402,-190.4133 565.9402,-190.4132"/>
</g>
<!-- 10 -->
<g id="node11" class="node">
<title>10</title>
<path fill="none" stroke="#d85656" stroke-width="2" stroke-dasharray="5,2" d="M660.5231,-324C660.5231,-324 622.357,-324 622.357,-324 616.357,-324 610.357,-318 610.357,-312 610.357,-312 610.357,-300 610.357,-300 610.357,-294 616.357,-288 622.357,-288 622.357,-288 660.5231,-288 660.5231,-288 666.5231,-288 672.5231,-294 672.5231,-300 672.5231,-300 672.5231,-312 672.5231,-312 672.5231,-318 666.5231,-324 660.5231,-324"/>
<text text-anchor="middle" x="641.4401" y="-303" font-family="sans" font-size="10.00" fill="#000000">gffcompare</text>
</g>
<!-- 10&#45;&gt;4 -->
<g id="edge10" class="edge">
<title>10-&gt;4</title>
<path fill="none" stroke="#c0c0c0" stroke-width="2" d="M634.9737,-287.8281C628.0331,-269.2229 616.1396,-239.7485 602.4401,-216 597.0185,-206.6014 590.2571,-196.905 583.8448,-188.3674"/>
<polygon fill="#c0c0c0" stroke="#c0c0c0" stroke-width="2" points="586.4849,-186.0592 577.6115,-180.2701 580.938,-190.3292 586.4849,-186.0592"/>
</g>
<!-- 11 -->
<g id="node12" class="node">
<title>11</title>
<path fill="none" stroke="#d85656" stroke-width="2" stroke-dasharray="5,2" d="M661.5231,-468C661.5231,-468 623.357,-468 623.357,-468 617.357,-468 611.357,-462 611.357,-456 611.357,-456 611.357,-444 611.357,-444 611.357,-438 617.357,-432 623.357,-432 623.357,-432 661.5231,-432 661.5231,-432 667.5231,-432 673.5231,-438 673.5231,-444 673.5231,-444 673.5231,-456 673.5231,-456 673.5231,-462 667.5231,-468 661.5231,-468"/>
<text text-anchor="middle" x="642.4401" y="-447" font-family="sans" font-size="10.00" fill="#000000">gffcompare</text>
</g>
<!-- 11&#45;&gt;4 -->
<g id="edge11" class="edge">
<title>11-&gt;4</title>
<path fill="none" stroke="#c0c0c0" stroke-width="2" d="M611.2194,-445.5321C582.6364,-439.6059 541.9151,-426.1198 522.4401,-396 479.0024,-328.8199 497.3678,-291.9696 522.4401,-216 525.7309,-206.0288 531.6517,-196.3944 537.9465,-188.0924"/>
<polygon fill="#c0c0c0" stroke="#c0c0c0" stroke-width="2" points="540.7072,-190.2448 544.2825,-180.2714 535.2681,-185.8384 540.7072,-190.2448"/>
</g>
<!-- 12 -->
<g id="node13" class="node">
<title>12</title>
<path fill="none" stroke="#d87556" stroke-width="2" stroke-dasharray="5,2" d="M775.0951,-468C775.0951,-468 741.785,-468 741.785,-468 735.785,-468 729.785,-462 729.785,-456 729.785,-456 729.785,-444 729.785,-444 729.785,-438 735.785,-432 741.785,-432 741.785,-432 775.0951,-432 775.0951,-432 781.0951,-432 787.0951,-438 787.0951,-444 787.0951,-444 787.0951,-456 787.0951,-456 787.0951,-462 781.0951,-468 775.0951,-468"/>
<text text-anchor="middle" x="758.4401" y="-447" font-family="sans" font-size="10.00" fill="#000000">SQANTI3</text>
</g>
<!-- 12&#45;&gt;5 -->
<g id="edge12" class="edge">
<title>12-&gt;5</title>
<path fill="none" stroke="#c0c0c0" stroke-width="2" d="M751.0602,-431.8634C735.6459,-390.9942 704.2611,-289.5359 739.4401,-216 745.0361,-204.3025 754.5394,-194.3295 764.6572,-186.2563"/>
<polygon fill="#c0c0c0" stroke="#c0c0c0" stroke-width="2" points="766.8897,-188.9583 772.8404,-180.1924 762.722,-183.3341 766.8897,-188.9583"/>
</g>
<!-- 13 -->
<g id="node14" class="node">
<title>13</title>
<path fill="none" stroke="#d87556" stroke-width="2" stroke-dasharray="5,2" d="M794.0951,-252C794.0951,-252 760.785,-252 760.785,-252 754.785,-252 748.785,-246 748.785,-240 748.785,-240 748.785,-228 748.785,-228 748.785,-222 754.785,-216 760.785,-216 760.785,-216 794.0951,-216 794.0951,-216 800.0951,-216 806.0951,-222 806.0951,-228 806.0951,-228 806.0951,-240 806.0951,-240 806.0951,-246 800.0951,-252 794.0951,-252"/>
<text text-anchor="middle" x="777.4401" y="-231" font-family="sans" font-size="10.00" fill="#000000">SQANTI3</text>
</g>
<!-- 13&#45;&gt;5 -->
<g id="edge13" class="edge">
<title>13-&gt;5</title>
<path fill="none" stroke="#c0c0c0" stroke-width="2" d="M784.758,-215.8314C787.9277,-207.9617 791.71,-198.5712 795.2214,-189.8533"/>
<polygon fill="#c0c0c0" stroke="#c0c0c0" stroke-width="2" points="798.534,-190.9968 799.0236,-180.4133 792.0409,-188.3815 798.534,-190.9968"/>
</g>
<!-- 14 -->
<g id="node15" class="node">
<title>14</title>
<path fill="none" stroke="#d87556" stroke-width="2" stroke-dasharray="5,2" d="M1005.0951,-324C1005.0951,-324 971.785,-324 971.785,-324 965.785,-324 959.785,-318 959.785,-312 959.785,-312 959.785,-300 959.785,-300 959.785,-294 965.785,-288 971.785,-288 971.785,-288 1005.0951,-288 1005.0951,-288 1011.0951,-288 1017.0951,-294 1017.0951,-300 1017.0951,-300 1017.0951,-312 1017.0951,-312 1017.0951,-318 1011.0951,-324 1005.0951,-324"/>
<text text-anchor="middle" x="988.4401" y="-303" font-family="sans" font-size="10.00" fill="#000000">SQANTI3</text>
</g>
<!-- 14&#45;&gt;5 -->
<g id="edge14" class="edge">
<title>14-&gt;5</title>
<path fill="none" stroke="#c0c0c0" stroke-width="2" d="M965.3897,-287.7623C932.9794,-262.119 873.8524,-215.3372 837.5648,-186.6262"/>
<polygon fill="#c0c0c0" stroke="#c0c0c0" stroke-width="2" points="839.3173,-183.5497 829.3033,-180.0896 834.9739,-189.0393 839.3173,-183.5497"/>
</g>
<!-- 15 -->
<g id="node16" class="node">
<title>15</title>
<path fill="none" stroke="#d87556" stroke-width="2" stroke-dasharray="5,2" d="M851.0951,-468C851.0951,-468 817.785,-468 817.785,-468 811.785,-468 805.785,-462 805.785,-456 805.785,-456 805.785,-444 805.785,-444 805.785,-438 811.785,-432 817.785,-432 817.785,-432 851.0951,-432 851.0951,-432 857.0951,-432 863.0951,-438 863.0951,-444 863.0951,-444 863.0951,-456 863.0951,-456 863.0951,-462 857.0951,-468 851.0951,-468"/>
<text text-anchor="middle" x="834.4401" y="-447" font-family="sans" font-size="10.00" fill="#000000">SQANTI3</text>
</g>
<!-- 15&#45;&gt;5 -->
<g id="edge15" class="edge">
<title>15-&gt;5</title>
<path fill="none" stroke="#c0c0c0" stroke-width="2" d="M833.4819,-431.742C831.2956,-392.2716 825.3481,-296.0917 815.4401,-216 814.4063,-207.6435 813.0102,-198.6036 811.6263,-190.3541"/>
<polygon fill="#c0c0c0" stroke="#c0c0c0" stroke-width="2" points="815.0641,-189.694 809.9081,-180.4384 808.1669,-190.8892 815.0641,-189.694"/>
</g>
<!-- 16&#45;&gt;6 -->
<g id="edge16" class="edge">
<title>16-&gt;6</title>
<path fill="none" stroke="#c0c0c0" stroke-width="2" d="M1241.3002,-791.8314C1246.603,-783.7079 1252.9638,-773.9637 1258.8074,-765.0118"/>
<polygon fill="#c0c0c0" stroke="#c0c0c0" stroke-width="2" points="1261.8849,-766.7003 1264.4203,-756.4133 1256.0232,-762.8739 1261.8849,-766.7003"/>
</g>
<!-- 42 -->
<g id="node43" class="node">
<title>42</title>
<path fill="none" stroke="#56d8b1" stroke-width="2" stroke-dasharray="5,2" d="M349.4704,-684C349.4704,-684 287.4098,-684 287.4098,-684 281.4098,-684 275.4098,-678 275.4098,-672 275.4098,-672 275.4098,-660 275.4098,-660 275.4098,-654 281.4098,-648 287.4098,-648 287.4098,-648 349.4704,-648 349.4704,-648 355.4704,-648 361.4704,-654 361.4704,-660 361.4704,-660 361.4704,-672 361.4704,-672 361.4704,-678 355.4704,-684 349.4704,-684"/>
<text text-anchor="middle" x="318.4401" y="-663" font-family="sans" font-size="10.00" fill="#000000">talon_label_reads</text>
</g>
<!-- 16&#45;&gt;42 -->
<g id="edge83" class="edge">
<title>16-&gt;42</title>
<path fill="none" stroke="#c0c0c0" stroke-width="2" d="M1202.2705,-808.9107C1091.8202,-804.3185 676.3035,-785.4073 548.4401,-756 482.1182,-740.7467 409.6289,-709.8143 364.1105,-688.5066"/>
<polygon fill="#c0c0c0" stroke="#c0c0c0" stroke-width="2" points="365.3553,-685.2237 354.8187,-684.1149 362.3641,-691.5525 365.3553,-685.2237"/>
</g>
<!-- 17 -->
<g id="node18" class="node">
<title>17</title>
<path fill="none" stroke="#56d8a2" stroke-width="2" stroke-dasharray="5,2" d="M1283.0998,-972C1283.0998,-972 1229.7803,-972 1229.7803,-972 1223.7803,-972 1217.7803,-966 1217.7803,-960 1217.7803,-960 1217.7803,-948 1217.7803,-948 1217.7803,-942 1223.7803,-936 1229.7803,-936 1229.7803,-936 1283.0998,-936 1283.0998,-936 1289.0998,-936 1295.0998,-942 1295.0998,-948 1295.0998,-948 1295.0998,-960 1295.0998,-960 1295.0998,-966 1289.0998,-972 1283.0998,-972"/>
<text text-anchor="middle" x="1256.4401" y="-951" font-family="sans" font-size="10.00" fill="#000000">install_paftools</text>
</g>
<!-- 17&#45;&gt;7 -->
<g id="edge17" class="edge">
<title>17-&gt;7</title>
<path fill="none" stroke="#c0c0c0" stroke-width="2" d="M1256.4401,-935.8314C1256.4401,-928.131 1256.4401,-918.9743 1256.4401,-910.4166"/>
<polygon fill="#c0c0c0" stroke="#c0c0c0" stroke-width="2" points="1259.9402,-910.4132 1256.4401,-900.4133 1252.9402,-910.4133 1259.9402,-910.4132"/>
</g>
<!-- 18 -->
<g id="node19" class="node">
<title>18</title>
<path fill="none" stroke="#afd856" stroke-width="2" stroke-dasharray="5,2" d="M769.3022,-540C769.3022,-540 733.5779,-540 733.5779,-540 727.5779,-540 721.5779,-534 721.5779,-528 721.5779,-528 721.5779,-516 721.5779,-516 721.5779,-510 727.5779,-504 733.5779,-504 733.5779,-504 769.3022,-504 769.3022,-504 775.3022,-504 781.3022,-510 781.3022,-516 781.3022,-516 781.3022,-528 781.3022,-528 781.3022,-534 775.3022,-540 769.3022,-540"/>
<text text-anchor="middle" x="751.4401" y="-519" font-family="sans" font-size="10.00" fill="#000000">correct_gtf</text>
</g>
<!-- 18&#45;&gt;8 -->
<g id="edge18" class="edge">
<title>18-&gt;8</title>
<path fill="none" stroke="#c0c0c0" stroke-width="2" d="M721.2962,-512.439C681.2685,-499.7429 610.4141,-477.2693 565.5194,-463.0296"/>
<polygon fill="#c0c0c0" stroke="#c0c0c0" stroke-width="2" points="566.3935,-459.635 555.8032,-459.9478 564.2771,-466.3074 566.3935,-459.635"/>
</g>
<!-- 18&#45;&gt;12 -->
<g id="edge27" class="edge">
<title>18-&gt;12</title>
<path fill="none" stroke="#c0c0c0" stroke-width="2" d="M753.2065,-503.8314C753.9551,-496.131 754.8453,-486.9743 755.6773,-478.4166"/>
<polygon fill="#c0c0c0" stroke="#c0c0c0" stroke-width="2" points="759.1657,-478.7051 756.6499,-468.4133 752.1986,-478.0276 759.1657,-478.7051"/>
</g>
<!-- 19 -->
<g id="node20" class="node">
<title>19</title>
<path fill="none" stroke="#61d856" stroke-width="2" stroke-dasharray="5,2" d="M627.823,-756C627.823,-756 569.0572,-756 569.0572,-756 563.0572,-756 557.0572,-750 557.0572,-744 557.0572,-744 557.0572,-732 557.0572,-732 557.0572,-726 563.0572,-720 569.0572,-720 569.0572,-720 627.823,-720 627.823,-720 633.823,-720 639.823,-726 639.823,-732 639.823,-732 639.823,-744 639.823,-744 639.823,-750 633.823,-756 627.823,-756"/>
<text text-anchor="middle" x="598.4401" y="-741" font-family="sans" font-size="10.00" fill="#000000">ungzip_gtf</text>
<text text-anchor="middle" x="598.4401" y="-729" font-family="sans" font-size="10.00" fill="#000000">annot: CanFam3</text>
</g>
<!-- 19&#45;&gt;8 -->
<g id="edge19" class="edge">
<title>19-&gt;8</title>
<path fill="none" stroke="#c0c0c0" stroke-width="2" d="M562.6067,-719.9444C549.0341,-711.1024 535.0351,-699.0751 527.4401,-684 493.5218,-616.677 507.195,-524.0185 517.2898,-478.1169"/>
<polygon fill="#c0c0c0" stroke="#c0c0c0" stroke-width="2" points="520.7226,-478.8064 519.5595,-468.2756 513.9017,-477.2333 520.7226,-478.8064"/>
</g>
<!-- 19&#45;&gt;9 -->
<g id="edge21" class="edge">
<title>19-&gt;9</title>
<path fill="none" stroke="#c0c0c0" stroke-width="2" d="M557.1057,-726.8956C531.7763,-718.4369 499.9981,-704.669 477.4401,-684 443.7023,-653.0874 427.4401,-639.7584 427.4401,-594 427.4401,-594 427.4401,-594 427.4401,-378 427.4401,-321.9285 482.591,-278.7066 522.3924,-254.8151"/>
<polygon fill="#c0c0c0" stroke="#c0c0c0" stroke-width="2" points="524.2478,-257.7849 531.129,-249.7288 520.7259,-251.7354 524.2478,-257.7849"/>
</g>
<!-- 19&#45;&gt;10 -->
<g id="edge23" class="edge">
<title>19-&gt;10</title>
<path fill="none" stroke="#c0c0c0" stroke-width="2" d="M558.6669,-719.7678C542.216,-710.7658 523.8859,-698.6658 510.4401,-684 480.2181,-651.0359 465.4401,-638.7214 465.4401,-594 465.4401,-594 465.4401,-594 465.4401,-522 465.4401,-481.1184 456.3857,-461.7365 484.4401,-432 526.1696,-387.7685 573.3406,-438.8977 616.4401,-396 632.7105,-379.8058 638.6312,-354.002 640.6733,-334.1679"/>
<polygon fill="#c0c0c0" stroke="#c0c0c0" stroke-width="2" points="644.1672,-334.3795 641.436,-324.1428 637.1874,-333.8484 644.1672,-334.3795"/>
</g>
<!-- 19&#45;&gt;11 -->
<g id="edge25" class="edge">
<title>19-&gt;11</title>
<path fill="none" stroke="#c0c0c0" stroke-width="2" d="M595.2511,-719.7666C588.9746,-679.5396 577.7408,-580.6697 603.4401,-504 606.7134,-494.2345 612.4295,-484.7279 618.4925,-476.4822"/>
<polygon fill="#c0c0c0" stroke="#c0c0c0" stroke-width="2" points="621.4255,-478.4142 624.8485,-468.3876 615.9199,-474.0911 621.4255,-478.4142"/>
</g>
<!-- 19&#45;&gt;12 -->
<g id="edge28" class="edge">
<title>19-&gt;12</title>
<path fill="none" stroke="#c0c0c0" stroke-width="2" d="M611.4359,-719.724C618.1673,-709.5848 626.0773,-696.524 631.4401,-684 664.0308,-607.8885 631.6095,-571.5822 679.4401,-504 689.9312,-489.1766 705.867,-477.1665 720.6848,-468.27"/>
<polygon fill="#c0c0c0" stroke="#c0c0c0" stroke-width="2" points="722.7474,-471.1234 729.7079,-463.1357 719.2854,-465.0394 722.7474,-471.1234"/>
</g>
<!-- 19&#45;&gt;13 -->
<g id="edge32" class="edge">
<title>19-&gt;13</title>
<path fill="none" stroke="#c0c0c0" stroke-width="2" d="M592.5352,-719.7234C589.4847,-709.3644 586.0677,-696.094 584.4401,-684 569.4632,-572.718 550.3888,-531.492 602.4401,-432 613.2246,-411.3862 624.46,-412.9077 640.4401,-396 683.8713,-350.0476 730.657,-292.881 756.7703,-260.2013"/>
<polygon fill="#c0c0c0" stroke="#c0c0c0" stroke-width="2" points="759.7677,-262.0557 763.2585,-252.0525 754.2915,-257.6955 759.7677,-262.0557"/>
</g>
<!-- 19&#45;&gt;14 -->
<g id="edge36" class="edge">
<title>19-&gt;14</title>
<path fill="none" stroke="#c0c0c0" stroke-width="2" d="M599.8152,-719.9182C603.5401,-679.1612 616.3316,-577.9175 655.4401,-504 660.4804,-494.4734 710.9306,-437.0725 720.4401,-432 819.0993,-379.3743 887.866,-472.4773 969.4401,-396 986.0306,-380.446 990.0428,-354.3469 990.3368,-334.2477"/>
<polygon fill="#c0c0c0" stroke="#c0c0c0" stroke-width="2" points="993.8341,-334.0353 990.1865,-324.0882 986.8349,-334.1389 993.8341,-334.0353"/>
</g>
<!-- 19&#45;&gt;15 -->
<g id="edge40" class="edge">
<title>19-&gt;15</title>
<path fill="none" stroke="#c0c0c0" stroke-width="2" d="M620.0354,-719.902C658.1813,-687.0994 738.3683,-614.3092 790.4401,-540 804.146,-520.441 815.8082,-495.9692 823.6757,-477.4829"/>
<polygon fill="#c0c0c0" stroke="#c0c0c0" stroke-width="2" points="826.9445,-478.737 827.5396,-468.1589 820.4778,-476.0571 826.9445,-478.737"/>
</g>
<!-- 19&#45;&gt;30 -->
<g id="edge56" class="edge">
<title>19-&gt;30</title>
<path fill="none" stroke="#c0c0c0" stroke-width="2" d="M639.974,-730.0888C714.1889,-715.9526 868.4207,-686.5751 939.3223,-673.0701"/>
<polygon fill="#c0c0c0" stroke="#c0c0c0" stroke-width="2" points="939.9906,-676.5058 949.1591,-671.1964 938.6808,-669.6294 939.9906,-676.5058"/>
</g>
<!-- 32 -->
<g id="node33" class="node">
<title>32</title>
<path fill="none" stroke="#569ad8" stroke-width="2" stroke-dasharray="5,2" d="M933.8603,-540C933.8603,-540 887.0198,-540 887.0198,-540 881.0198,-540 875.0198,-534 875.0198,-528 875.0198,-528 875.0198,-516 875.0198,-516 875.0198,-510 881.0198,-504 887.0198,-504 887.0198,-504 933.8603,-504 933.8603,-504 939.8603,-504 945.8603,-510 945.8603,-516 945.8603,-516 945.8603,-528 945.8603,-528 945.8603,-534 939.8603,-540 933.8603,-540"/>
<text text-anchor="middle" x="910.4401" y="-519" font-family="sans" font-size="10.00" fill="#000000">flair_collapse</text>
</g>
<!-- 19&#45;&gt;32 -->
<g id="edge64" class="edge">
<title>19-&gt;32</title>
<path fill="none" stroke="#c0c0c0" stroke-width="2" d="M639.6806,-720.1129C660.5629,-710.4278 685.971,-697.6629 707.4401,-684 774.5612,-641.2842 845.5948,-580.4908 883.2602,-546.8331"/>
<polygon fill="#c0c0c0" stroke="#c0c0c0" stroke-width="2" points="885.6781,-549.3659 890.7777,-540.0791 880.9998,-544.1588 885.6781,-549.3659"/>
</g>
<!-- 19&#45;&gt;33 -->
<g id="edge65" class="edge">
<title>19-&gt;33</title>
<path fill="none" stroke="#c0c0c0" stroke-width="2" d="M639.9123,-732.7057C745.685,-719.2028 1024.2602,-683.64 1125.224,-670.751"/>
<polygon fill="#c0c0c0" stroke="#c0c0c0" stroke-width="2" points="1125.784,-674.208 1135.2602,-669.4698 1124.8975,-667.2643 1125.784,-674.208"/>
</g>
<!-- 35 -->
<g id="node36" class="node">
<title>35</title>
<path fill="none" stroke="#567bd8" stroke-width="2" stroke-dasharray="5,2" d="M118.3528,-684C118.3528,-684 26.5273,-684 26.5273,-684 20.5273,-684 14.5273,-678 14.5273,-672 14.5273,-672 14.5273,-660 14.5273,-660 14.5273,-654 20.5273,-648 26.5273,-648 26.5273,-648 118.3528,-648 118.3528,-648 124.3528,-648 130.3528,-654 130.3528,-660 130.3528,-660 130.3528,-672 130.3528,-672 130.3528,-678 124.3528,-684 118.3528,-684"/>
<text text-anchor="middle" x="72.4401" y="-663" font-family="sans" font-size="10.00" fill="#000000">talon_initialize_database</text>
</g>
<!-- 19&#45;&gt;35 -->
<g id="edge70" class="edge">
<title>19-&gt;35</title>
<path fill="none" stroke="#c0c0c0" stroke-width="2" d="M556.9871,-735.1529C477.7846,-729.2758 299.4234,-713.9356 140.3877,-684.0287"/>
<polygon fill="#c0c0c0" stroke="#c0c0c0" stroke-width="2" points="140.9032,-680.5641 130.4249,-682.131 139.5934,-687.4404 140.9032,-680.5641"/>
</g>
<!-- 36 -->
<g id="node37" class="node">
<title>36</title>
<path fill="none" stroke="#c6d856" stroke-width="2" stroke-dasharray="5,2" d="M205.5251,-540C205.5251,-540 147.355,-540 147.355,-540 141.355,-540 135.355,-534 135.355,-528 135.355,-528 135.355,-516 135.355,-516 135.355,-510 141.355,-504 147.355,-504 147.355,-504 205.5251,-504 205.5251,-504 211.5251,-504 217.5251,-510 217.5251,-516 217.5251,-516 217.5251,-528 217.5251,-528 217.5251,-534 211.5251,-540 205.5251,-540"/>
<text text-anchor="middle" x="176.4401" y="-519" font-family="sans" font-size="10.00" fill="#000000">filter_transcripts</text>
</g>
<!-- 19&#45;&gt;36 -->
<g id="edge73" class="edge">
<title>19-&gt;36</title>
<path fill="none" stroke="#c0c0c0" stroke-width="2" d="M556.8833,-730.9735C518.107,-723.2615 459.4809,-708.5879 413.4401,-684 391.4543,-672.2586 390.4837,-662.8151 370.4401,-648 318.4962,-609.606 255.2462,-569.7208 215.3998,-545.373"/>
<polygon fill="#c0c0c0" stroke="#c0c0c0" stroke-width="2" points="217.1373,-542.3332 206.7756,-540.1227 213.4972,-548.3124 217.1373,-542.3332"/>
</g>
<!-- 37 -->
<g id="node38" class="node">
<title>37</title>
<path fill="none" stroke="#d8bc56" stroke-width="2" stroke-dasharray="5,2" d="M1109.3504,-612C1109.3504,-612 1067.5298,-612 1067.5298,-612 1061.5298,-612 1055.5298,-606 1055.5298,-600 1055.5298,-600 1055.5298,-588 1055.5298,-588 1055.5298,-582 1061.5298,-576 1067.5298,-576 1067.5298,-576 1109.3504,-576 1109.3504,-576 1115.3504,-576 1121.3504,-582 1121.3504,-588 1121.3504,-588 1121.3504,-600 1121.3504,-600 1121.3504,-606 1115.3504,-612 1109.3504,-612"/>
<text text-anchor="middle" x="1088.4401" y="-591" font-family="sans" font-size="10.00" fill="#000000">flair_correct</text>
</g>
<!-- 19&#45;&gt;37 -->
<g id="edge76" class="edge">
<title>19-&gt;37</title>
<path fill="none" stroke="#c0c0c0" stroke-width="2" d="M639.7677,-728.2989C717.8065,-709.5682 892.0678,-665.7779 1045.9485,-611.9556"/>
<polygon fill="#c0c0c0" stroke="#c0c0c0" stroke-width="2" points="1047.3164,-615.1846 1055.5861,-608.5619 1044.9913,-608.582 1047.3164,-615.1846"/>
</g>
<!-- 20 -->
<g id="node21" class="node">
<title>20</title>
<path fill="none" stroke="#afd856" stroke-width="2" stroke-dasharray="5,2" d="M580.3022,-324C580.3022,-324 544.5779,-324 544.5779,-324 538.5779,-324 532.5779,-318 532.5779,-312 532.5779,-312 532.5779,-300 532.5779,-300 532.5779,-294 538.5779,-288 544.5779,-288 544.5779,-288 580.3022,-288 580.3022,-288 586.3022,-288 592.3022,-294 592.3022,-300 592.3022,-300 592.3022,-312 592.3022,-312 592.3022,-318 586.3022,-324 580.3022,-324"/>
<text text-anchor="middle" x="562.4401" y="-303" font-family="sans" font-size="10.00" fill="#000000">correct_gtf</text>
</g>
<!-- 20&#45;&gt;9 -->
<g id="edge20" class="edge">
<title>20-&gt;9</title>
<path fill="none" stroke="#c0c0c0" stroke-width="2" d="M562.4401,-287.8314C562.4401,-280.131 562.4401,-270.9743 562.4401,-262.4166"/>
<polygon fill="#c0c0c0" stroke="#c0c0c0" stroke-width="2" points="565.9402,-262.4132 562.4401,-252.4133 558.9402,-262.4133 565.9402,-262.4132"/>
</g>
<!-- 20&#45;&gt;13 -->
<g id="edge31" class="edge">
<title>20-&gt;13</title>
<path fill="none" stroke="#c0c0c0" stroke-width="2" d="M592.5021,-291.6385C595.499,-290.3539 598.5144,-289.1181 601.4401,-288 647.77,-270.2934 702.6031,-254.2111 738.6065,-244.2902"/>
<polygon fill="#c0c0c0" stroke="#c0c0c0" stroke-width="2" points="739.9666,-247.547 748.6917,-241.5367 738.1229,-240.7942 739.9666,-247.547"/>
</g>
<!-- 21 -->
<g id="node22" class="node">
<title>21</title>
<path fill="none" stroke="#afd856" stroke-width="2" stroke-dasharray="5,2" d="M948.3022,-396C948.3022,-396 912.5779,-396 912.5779,-396 906.5779,-396 900.5779,-390 900.5779,-384 900.5779,-384 900.5779,-372 900.5779,-372 900.5779,-366 906.5779,-360 912.5779,-360 912.5779,-360 948.3022,-360 948.3022,-360 954.3022,-360 960.3022,-366 960.3022,-372 960.3022,-372 960.3022,-384 960.3022,-384 960.3022,-390 954.3022,-396 948.3022,-396"/>
<text text-anchor="middle" x="930.4401" y="-375" font-family="sans" font-size="10.00" fill="#000000">correct_gtf</text>
</g>
<!-- 21&#45;&gt;10 -->
<g id="edge22" class="edge">
<title>21-&gt;10</title>
<path fill="none" stroke="#c0c0c0" stroke-width="2" d="M900.3299,-370.4985C848.2608,-357.5263 741.3394,-330.8884 682.5025,-316.2301"/>
<polygon fill="#c0c0c0" stroke="#c0c0c0" stroke-width="2" points="683.3434,-312.8327 672.7938,-313.8113 681.6511,-319.625 683.3434,-312.8327"/>
</g>
<!-- 21&#45;&gt;14 -->
<g id="edge35" class="edge">
<title>21-&gt;14</title>
<path fill="none" stroke="#c0c0c0" stroke-width="2" d="M945.0759,-359.8314C951.7562,-351.5386 959.7969,-341.557 967.1304,-332.4533"/>
<polygon fill="#c0c0c0" stroke="#c0c0c0" stroke-width="2" points="970.0595,-334.3965 973.6072,-324.4133 964.6082,-330.0052 970.0595,-334.3965"/>
</g>
<!-- 22 -->
<g id="node23" class="node">
<title>22</title>
<path fill="none" stroke="#afd856" stroke-width="2" stroke-dasharray="5,2" d="M1011.3022,-540C1011.3022,-540 975.5779,-540 975.5779,-540 969.5779,-540 963.5779,-534 963.5779,-528 963.5779,-528 963.5779,-516 963.5779,-516 963.5779,-510 969.5779,-504 975.5779,-504 975.5779,-504 1011.3022,-504 1011.3022,-504 1017.3022,-504 1023.3022,-510 1023.3022,-516 1023.3022,-516 1023.3022,-528 1023.3022,-528 1023.3022,-534 1017.3022,-540 1011.3022,-540"/>
<text text-anchor="middle" x="993.4401" y="-519" font-family="sans" font-size="10.00" fill="#000000">correct_gtf</text>
</g>
<!-- 22&#45;&gt;11 -->
<g id="edge24" class="edge">
<title>22-&gt;11</title>
<path fill="none" stroke="#c0c0c0" stroke-width="2" d="M963.5318,-507.188C960.5037,-505.9945 957.439,-504.9032 954.4401,-504 853.6866,-473.6562 823.7755,-487.8439 720.4401,-468 708.5118,-465.7094 695.6369,-462.8848 683.8521,-460.1579"/>
<polygon fill="#c0c0c0" stroke="#c0c0c0" stroke-width="2" points="684.363,-456.6827 673.8275,-457.8025 682.7618,-463.4971 684.363,-456.6827"/>
</g>
<!-- 22&#45;&gt;15 -->
<g id="edge39" class="edge">
<title>22-&gt;15</title>
<path fill="none" stroke="#c0c0c0" stroke-width="2" d="M963.2195,-508.0175C960.2546,-506.6561 957.2901,-505.2989 954.4401,-504 927.2163,-491.5926 896.4431,-477.7483 872.8759,-467.184"/>
<polygon fill="#c0c0c0" stroke="#c0c0c0" stroke-width="2" points="874.1304,-463.9108 863.5733,-463.0165 871.2685,-470.2991 874.1304,-463.9108"/>
</g>
<!-- 23 -->
<g id="node24" class="node">
<title>23</title>
<path fill="none" stroke="#56d892" stroke-width="2" stroke-dasharray="5,2" d="M1116.0381,-540C1116.0381,-540 1052.842,-540 1052.842,-540 1046.842,-540 1040.842,-534 1040.842,-528 1040.842,-528 1040.842,-516 1040.842,-516 1040.842,-510 1046.842,-504 1052.842,-504 1052.842,-504 1116.0381,-504 1116.0381,-504 1122.0381,-504 1128.0381,-510 1128.0381,-516 1128.0381,-516 1128.0381,-528 1128.0381,-528 1128.0381,-534 1122.0381,-540 1116.0381,-540"/>
<text text-anchor="middle" x="1084.4401" y="-519" font-family="sans" font-size="10.00" fill="#000000">install_SQANTI3</text>
</g>
<!-- 23&#45;&gt;12 -->
<g id="edge26" class="edge">
<title>23-&gt;12</title>
<path fill="none" stroke="#c0c0c0" stroke-width="2" d="M1040.6349,-506.2087C1037.8771,-505.4099 1035.1296,-504.6648 1032.4401,-504 932.5557,-479.312 899.8758,-497.8395 796.9849,-467.6291"/>
<polygon fill="#c0c0c0" stroke="#c0c0c0" stroke-width="2" points="797.7241,-464.1962 787.1391,-464.6544 795.6995,-470.8971 797.7241,-464.1962"/>
</g>
<!-- 23&#45;&gt;13 -->
<g id="edge30" class="edge">
<title>23-&gt;13</title>
<path fill="none" stroke="#c0c0c0" stroke-width="2" d="M1040.7964,-506.7284C1037.9731,-505.7913 1035.1694,-504.8745 1032.4401,-504 978.6028,-486.749 954.7367,-503.1264 910.4401,-468 840.8788,-412.8392 801.3136,-310.6733 785.5341,-261.651"/>
<polygon fill="#c0c0c0" stroke="#c0c0c0" stroke-width="2" points="788.8514,-260.532 782.5257,-252.0328 782.1706,-262.6217 788.8514,-260.532"/>
</g>
<!-- 23&#45;&gt;14 -->
<g id="edge34" class="edge">
<title>23-&gt;14</title>
<path fill="none" stroke="#c0c0c0" stroke-width="2" d="M1076.4203,-503.9555C1059.6203,-466.1556 1020.6403,-378.4506 1000.6874,-333.5564"/>
<polygon fill="#c0c0c0" stroke="#c0c0c0" stroke-width="2" points="1003.7643,-331.8617 996.5046,-324.1451 997.3676,-334.7047 1003.7643,-331.8617"/>
</g>
<!-- 23&#45;&gt;15 -->
<g id="edge38" class="edge">
<title>23-&gt;15</title>
<path fill="none" stroke="#c0c0c0" stroke-width="2" d="M1040.8537,-506.5402C1038.0164,-505.6492 1035.1939,-504.794 1032.4401,-504 964.486,-484.4059 944.7412,-489.7312 877.4401,-468 875.9961,-467.5337 874.5329,-467.0392 873.0611,-466.5231"/>
<polygon fill="#c0c0c0" stroke="#c0c0c0" stroke-width="2" points="873.9273,-463.1098 863.3351,-462.8733 871.468,-469.6636 873.9273,-463.1098"/>
</g>
<!-- 24 -->
<g id="node25" class="node">
<title>24</title>
<path fill="none" stroke="#56d8c1" stroke-width="2" stroke-dasharray="5,2" d="M1012.4121,-756C1012.4121,-756 940.4681,-756 940.4681,-756 934.4681,-756 928.4681,-750 928.4681,-744 928.4681,-744 928.4681,-732 928.4681,-732 928.4681,-726 934.4681,-720 940.4681,-720 940.4681,-720 1012.4121,-720 1012.4121,-720 1018.4121,-720 1024.4121,-726 1024.4121,-732 1024.4121,-732 1024.4121,-744 1024.4121,-744 1024.4121,-750 1018.4121,-756 1012.4121,-756"/>
<text text-anchor="middle" x="976.4401" y="-735" font-family="sans" font-size="10.00" fill="#000000">ungzip_genome_ref</text>
</g>
<!-- 24&#45;&gt;12 -->
<g id="edge29" class="edge">
<title>24-&gt;12</title>
<path fill="none" stroke="#c0c0c0" stroke-width="2" d="M931.4772,-719.9947C868.8208,-692.1212 757.8374,-631.9566 712.4401,-540 705.3573,-525.6531 706.9119,-519.0146 712.4401,-504 716.2451,-493.6656 723.0045,-483.9621 730.1901,-475.7098"/>
<polygon fill="#c0c0c0" stroke="#c0c0c0" stroke-width="2" points="732.8679,-477.9701 737.1274,-468.2692 727.7481,-473.1965 732.8679,-477.9701"/>
</g>
<!-- 24&#45;&gt;13 -->
<g id="edge33" class="edge">
<title>24-&gt;13</title>
<path fill="none" stroke="#c0c0c0" stroke-width="2" d="M1021.0139,-719.993C1041.0984,-710.782 1064.5009,-698.4549 1083.4401,-684 1136.354,-643.6146 1270.4401,-516.5647 1270.4401,-450 1270.4401,-450 1270.4401,-450 1270.4401,-378 1270.4401,-283.6426 933.4834,-246.8799 816.7143,-236.973"/>
<polygon fill="#c0c0c0" stroke="#c0c0c0" stroke-width="2" points="816.6935,-233.4594 806.4389,-236.1228 816.1162,-240.4356 816.6935,-233.4594"/>
</g>
<!-- 24&#45;&gt;14 -->
<g id="edge37" class="edge">
<title>24-&gt;14</title>
<path fill="none" stroke="#c0c0c0" stroke-width="2" d="M1000.6877,-719.8497C1042.1335,-688.5847 1122.8894,-626.5196 1130.4401,-612 1145.2737,-583.4756 1135.8827,-572.1131 1137.4401,-540 1138.2151,-524.0188 1142.3279,-519.2351 1137.4401,-504 1113.4021,-429.0748 1082.8852,-422.0054 1034.4401,-360 1027.1256,-350.6381 1018.7917,-340.6639 1011.2453,-331.8681"/>
<polygon fill="#c0c0c0" stroke="#c0c0c0" stroke-width="2" points="1013.7778,-329.4459 1004.5882,-324.1731 1008.4839,-334.0258 1013.7778,-329.4459"/>
</g>
<!-- 24&#45;&gt;15 -->
<g id="edge41" class="edge">
<title>24-&gt;15</title>
<path fill="none" stroke="#c0c0c0" stroke-width="2" d="M955.4513,-719.815C945.0859,-710.0049 933.0007,-697.2182 924.4401,-684 880.5384,-616.2131 852.9968,-523.7632 841.1625,-478.0115"/>
<polygon fill="#c0c0c0" stroke="#c0c0c0" stroke-width="2" points="844.5273,-477.0407 838.6826,-468.2039 837.7409,-478.7567 844.5273,-477.0407"/>
</g>
<!-- 24&#45;&gt;32 -->
<g id="edge61" class="edge">
<title>24-&gt;32</title>
<path fill="none" stroke="#c0c0c0" stroke-width="2" d="M961.4246,-719.5723C954.028,-709.5981 945.6097,-696.737 940.4401,-684 922.3676,-639.4722 915.0952,-583.6158 912.231,-550.4786"/>
<polygon fill="#c0c0c0" stroke="#c0c0c0" stroke-width="2" points="915.6929,-549.8556 911.4195,-540.1609 908.7145,-550.4046 915.6929,-549.8556"/>
</g>
<!-- 24&#45;&gt;33 -->
<g id="edge67" class="edge">
<title>24-&gt;33</title>
<path fill="none" stroke="#c0c0c0" stroke-width="2" d="M1024.7095,-720.8075C1053.0408,-710.5218 1089.4496,-696.9668 1121.4401,-684 1122.8359,-683.4342 1124.2554,-682.851 1125.6868,-682.2561"/>
<polygon fill="#c0c0c0" stroke="#c0c0c0" stroke-width="2" points="1127.3475,-685.3535 1135.1853,-678.2248 1124.6126,-678.9099 1127.3475,-685.3535"/>
</g>
<!-- 24&#45;&gt;37 -->
<g id="edge75" class="edge">
<title>24-&gt;37</title>
<path fill="none" stroke="#c0c0c0" stroke-width="2" d="M990.625,-719.7623C1010.2331,-694.5518 1045.7321,-648.9103 1068.1438,-620.0952"/>
<polygon fill="#c0c0c0" stroke="#c0c0c0" stroke-width="2" points="1070.9937,-622.132 1074.3704,-612.0896 1065.4682,-617.8344 1070.9937,-622.132"/>
</g>
<!-- 24&#45;&gt;42 -->
<g id="edge84" class="edge">
<title>24-&gt;42</title>
<path fill="none" stroke="#c0c0c0" stroke-width="2" d="M928.3224,-732.7348C808.4463,-719.6177 497.1418,-685.554 371.8426,-671.8434"/>
<polygon fill="#c0c0c0" stroke="#c0c0c0" stroke-width="2" points="372.0459,-668.3449 361.7245,-670.7363 371.2845,-675.3033 372.0459,-668.3449"/>
</g>
<!-- 25 -->
<g id="node26" class="node">
<title>25</title>
<path fill="none" stroke="#56b9d8" stroke-width="2" stroke-dasharray="5,2" d="M1023.363,-900C1023.363,-900 951.5171,-900 951.5171,-900 945.5171,-900 939.5171,-894 939.5171,-888 939.5171,-888 939.5171,-876 939.5171,-876 939.5171,-870 945.5171,-864 951.5171,-864 951.5171,-864 1023.363,-864 1023.363,-864 1029.363,-864 1035.363,-870 1035.363,-876 1035.363,-876 1035.363,-888 1035.363,-888 1035.363,-894 1029.363,-900 1023.363,-900"/>
<text text-anchor="middle" x="987.4401" y="-879" font-family="sans" font-size="10.00" fill="#000000">ungzip_query_fastq</text>
</g>
<!-- 25&#45;&gt;16 -->
<g id="edge42" class="edge">
<title>25-&gt;16</title>
<path fill="none" stroke="#c0c0c0" stroke-width="2" d="M1035.2515,-867.7751C1081.4447,-854.0317 1150.4333,-833.5062 1192.5394,-820.9787"/>
<polygon fill="#c0c0c0" stroke="#c0c0c0" stroke-width="2" points="1193.7919,-824.2578 1202.3785,-818.0514 1191.7957,-817.5484 1193.7919,-824.2578"/>
</g>
<!-- 25&#45;&gt;32 -->
<g id="edge62" class="edge">
<title>25-&gt;32</title>
<path fill="none" stroke="#c0c0c0" stroke-width="2" d="M974.3612,-863.892C958.1644,-840.351 931.2686,-797.3444 919.4401,-756 898.8818,-684.142 903.2092,-594.8141 907.2821,-550.1658"/>
<polygon fill="#c0c0c0" stroke="#c0c0c0" stroke-width="2" points="910.7796,-550.3612 908.2702,-540.0678 903.8129,-549.6794 910.7796,-550.3612"/>
</g>
<!-- 26&#45;&gt;18 -->
<g id="edge44" class="edge">
<title>26-&gt;18</title>
<path fill="none" stroke="#c0c0c0" stroke-width="2" d="M949.0535,-580.7941C903.8605,-567.3482 834.4448,-546.6956 791.0556,-533.7864"/>
<polygon fill="#c0c0c0" stroke="#c0c0c0" stroke-width="2" points="791.9966,-530.4149 781.4137,-530.9178 790.0004,-537.1242 791.9966,-530.4149"/>
</g>
<!-- 27&#45;&gt;20 -->
<g id="edge45" class="edge">
<title>27-&gt;20</title>
<path fill="none" stroke="#c0c0c0" stroke-width="2" d="M567.6737,-359.8314C566.925,-352.131 566.0348,-342.9743 565.2028,-334.4166"/>
<polygon fill="#c0c0c0" stroke="#c0c0c0" stroke-width="2" points="568.6816,-334.0276 564.2303,-324.4133 561.7144,-334.7051 568.6816,-334.0276"/>
</g>
<!-- 28&#45;&gt;21 -->
<g id="edge46" class="edge">
<title>28-&gt;21</title>
<path fill="none" stroke="#c0c0c0" stroke-width="2" d="M949.1315,-431.8314C946.4284,-424.0463 943.2085,-414.7729 940.2091,-406.1347"/>
<polygon fill="#c0c0c0" stroke="#c0c0c0" stroke-width="2" points="943.4201,-404.7119 936.8336,-396.4133 936.8074,-407.0081 943.4201,-404.7119"/>
</g>
<!-- 29&#45;&gt;22 -->
<g id="edge47" class="edge">
<title>29-&gt;22</title>
<path fill="none" stroke="#c0c0c0" stroke-width="2" d="M1214.6411,-586.6569C1170.9499,-578.3928 1100.4535,-563.3983 1032.9827,-540.243"/>
<polygon fill="#c0c0c0" stroke="#c0c0c0" stroke-width="2" points="1034.0803,-536.919 1023.4855,-536.9213 1031.7693,-543.5266 1034.0803,-536.919"/>
</g>
<!-- 30&#45;&gt;26 -->
<g id="edge48" class="edge">
<title>30-&gt;26</title>
<path fill="none" stroke="#c0c0c0" stroke-width="2" d="M980.7299,-647.8314C982.548,-640.131 984.71,-630.9743 986.7306,-622.4166"/>
<polygon fill="#c0c0c0" stroke="#c0c0c0" stroke-width="2" points="990.2008,-622.95 989.0925,-612.4133 983.3882,-621.3414 990.2008,-622.95"/>
</g>
<!-- 31 -->
<g id="node32" class="node">
<title>31</title>
<path fill="none" stroke="#d89c56" stroke-width="2" stroke-dasharray="5,2" d="M187.6884,-468C187.6884,-468 123.1917,-468 123.1917,-468 117.1917,-468 111.1917,-462 111.1917,-456 111.1917,-456 111.1917,-444 111.1917,-444 111.1917,-438 117.1917,-432 123.1917,-432 123.1917,-432 187.6884,-432 187.6884,-432 193.6884,-432 199.6884,-438 199.6884,-444 199.6884,-444 199.6884,-456 199.6884,-456 199.6884,-462 193.6884,-468 187.6884,-468"/>
<text text-anchor="middle" x="155.4401" y="-447" font-family="sans" font-size="10.00" fill="#000000">talon_create_GTF</text>
</g>
<!-- 31&#45;&gt;27 -->
<g id="edge50" class="edge">
<title>31-&gt;27</title>
<path fill="none" stroke="#c0c0c0" stroke-width="2" d="M199.7453,-442.2947C278.1608,-428.6573 440.7235,-400.3855 521.5954,-386.3208"/>
<polygon fill="#c0c0c0" stroke="#c0c0c0" stroke-width="2" points="522.2584,-389.7581 531.5108,-384.5964 521.0589,-382.8617 522.2584,-389.7581"/>
</g>
<!-- 32&#45;&gt;28 -->
<g id="edge52" class="edge">
<title>32-&gt;28</title>
<path fill="none" stroke="#c0c0c0" stroke-width="2" d="M921.7955,-503.8314C926.8727,-495.7079 932.9627,-485.9637 938.5577,-477.0118"/>
<polygon fill="#c0c0c0" stroke="#c0c0c0" stroke-width="2" points="941.5997,-478.7483 943.9318,-468.4133 935.6637,-475.0383 941.5997,-478.7483"/>
</g>
<!-- 33&#45;&gt;29 -->
<g id="edge54" class="edge">
<title>33-&gt;29</title>
<path fill="none" stroke="#c0c0c0" stroke-width="2" d="M1186.1602,-647.8314C1197.8494,-638.8779 1212.1089,-627.9558 1224.721,-618.2955"/>
<polygon fill="#c0c0c0" stroke="#c0c0c0" stroke-width="2" points="1226.917,-621.0222 1232.7275,-612.1628 1222.6604,-615.4651 1226.917,-621.0222"/>
</g>
<!-- 34 -->
<g id="node35" class="node">
<title>34</title>
<path fill="none" stroke="#9fd856" stroke-width="2" stroke-dasharray="5,2" d="M158.3826,-756C158.3826,-756 116.4976,-756 116.4976,-756 110.4976,-756 104.4976,-750 104.4976,-744 104.4976,-744 104.4976,-732 104.4976,-732 104.4976,-726 110.4976,-720 116.4976,-720 116.4976,-720 158.3826,-720 158.3826,-720 164.3826,-720 170.3826,-726 170.3826,-732 170.3826,-732 170.3826,-744 170.3826,-744 170.3826,-750 164.3826,-756 158.3826,-756"/>
<text text-anchor="middle" x="137.4401" y="-735" font-family="sans" font-size="10.00" fill="#000000">install_talon</text>
</g>
<!-- 34&#45;&gt;31 -->
<g id="edge58" class="edge">
<title>34-&gt;31</title>
<path fill="none" stroke="#c0c0c0" stroke-width="2" d="M104.6951,-734.7428C73.2763,-729.6817 27.4528,-716.7886 5.4401,-684 -3.4782,-670.716 .5174,-663.2239 5.4401,-648 28.7282,-575.9796 90.592,-509.6432 127.1891,-475.0506"/>
<polygon fill="#c0c0c0" stroke="#c0c0c0" stroke-width="2" points="129.6568,-477.5352 134.5921,-468.1601 124.8876,-472.4113 129.6568,-477.5352"/>
</g>
<!-- 34&#45;&gt;35 -->
<g id="edge69" class="edge">
<title>34-&gt;35</title>
<path fill="none" stroke="#c0c0c0" stroke-width="2" d="M121.0378,-719.8314C113.3985,-711.3694 104.1717,-701.1489 95.8194,-691.8971"/>
<polygon fill="#c0c0c0" stroke="#c0c0c0" stroke-width="2" points="98.3622,-689.4906 89.0632,-684.4133 93.1663,-694.1813 98.3622,-689.4906"/>
</g>
<!-- 41 -->
<g id="node42" class="node">
<title>41</title>
<path fill="none" stroke="#d6d856" stroke-width="2" stroke-dasharray="5,2" d="M244.6744,-684C244.6744,-684 160.2058,-684 160.2058,-684 154.2058,-684 148.2058,-678 148.2058,-672 148.2058,-672 148.2058,-660 148.2058,-660 148.2058,-654 154.2058,-648 160.2058,-648 160.2058,-648 244.6744,-648 244.6744,-648 250.6744,-648 256.6744,-654 256.6744,-660 256.6744,-660 256.6744,-672 256.6744,-672 256.6744,-678 250.6744,-684 244.6744,-684"/>
<text text-anchor="middle" x="202.4401" y="-669" font-family="sans" font-size="10.00" fill="#000000">create_talon_configfile</text>
<text text-anchor="middle" x="202.4401" y="-657" font-family="sans" font-size="10.00" fill="#000000">annot: CanFam3</text>
</g>
<!-- 34&#45;&gt;41 -->
<g id="edge81" class="edge">
<title>34-&gt;41</title>
<path fill="none" stroke="#c0c0c0" stroke-width="2" d="M153.8423,-719.8314C161.4816,-711.3694 170.7084,-701.1489 179.0608,-691.8971"/>
<polygon fill="#c0c0c0" stroke="#c0c0c0" stroke-width="2" points="181.7139,-694.1813 185.817,-684.4133 176.518,-689.4906 181.7139,-694.1813"/>
</g>
<!-- 34&#45;&gt;42 -->
<g id="edge82" class="edge">
<title>34-&gt;42</title>
<path fill="none" stroke="#c0c0c0" stroke-width="2" d="M170.2178,-724.9613C196.8991,-714.3478 235.0687,-699.1643 265.9915,-686.8635"/>
<polygon fill="#c0c0c0" stroke="#c0c0c0" stroke-width="2" points="267.3367,-690.0952 275.3349,-683.1468 264.7493,-683.5909 267.3367,-690.0952"/>
</g>
<!-- 35&#45;&gt;31 -->
<g id="edge59" class="edge">
<title>35-&gt;31</title>
<path fill="none" stroke="#c0c0c0" stroke-width="2" d="M77.445,-647.6435C85.9883,-617.2077 104.5968,-554.6314 126.4401,-504 130.3406,-494.9589 135.2101,-485.3987 139.8386,-476.8759"/>
<polygon fill="#c0c0c0" stroke="#c0c0c0" stroke-width="2" points="142.9125,-478.5499 144.7092,-468.1085 136.7933,-475.1504 142.9125,-478.5499"/>
</g>
<!-- 35&#45;&gt;36 -->
<g id="edge71" class="edge">
<title>35-&gt;36</title>
<path fill="none" stroke="#c0c0c0" stroke-width="2" d="M85.6117,-647.7623C103.7412,-622.66 136.5,-577.3017 157.325,-548.4671"/>
<polygon fill="#c0c0c0" stroke="#c0c0c0" stroke-width="2" points="160.3578,-550.2457 163.3754,-540.0896 154.683,-546.1472 160.3578,-550.2457"/>
</g>
<!-- 39 -->
<g id="node40" class="node">
<title>39</title>
<path fill="none" stroke="#d88556" stroke-width="2" stroke-dasharray="5,2" d="M212.4401,-612C212.4401,-612 182.4401,-612 182.4401,-612 176.4401,-612 170.4401,-606 170.4401,-600 170.4401,-600 170.4401,-588 170.4401,-588 170.4401,-582 176.4401,-576 182.4401,-576 182.4401,-576 212.4401,-576 212.4401,-576 218.4401,-576 224.4401,-582 224.4401,-588 224.4401,-588 224.4401,-600 224.4401,-600 224.4401,-606 218.4401,-612 212.4401,-612"/>
<text text-anchor="middle" x="197.4401" y="-591" font-family="sans" font-size="10.00" fill="#000000">talon</text>
</g>
<!-- 35&#45;&gt;39 -->
<g id="edge78" class="edge">
<title>35-&gt;39</title>
<path fill="none" stroke="#c0c0c0" stroke-width="2" d="M103.9829,-647.8314C121.3509,-637.8273 142.986,-625.3655 161.0647,-614.9522"/>
<polygon fill="#c0c0c0" stroke="#c0c0c0" stroke-width="2" points="163.2347,-617.7414 170.1531,-609.7173 159.7408,-611.6757 163.2347,-617.7414"/>
</g>
<!-- 36&#45;&gt;31 -->
<g id="edge60" class="edge">
<title>36-&gt;31</title>
<path fill="none" stroke="#c0c0c0" stroke-width="2" d="M171.1409,-503.8314C168.8703,-496.0463 166.1655,-486.7729 163.646,-478.1347"/>
<polygon fill="#c0c0c0" stroke="#c0c0c0" stroke-width="2" points="166.9707,-477.0332 160.8106,-468.4133 160.2507,-478.9933 166.9707,-477.0332"/>
</g>
<!-- 37&#45;&gt;32 -->
<g id="edge63" class="edge">
<title>37-&gt;32</title>
<path fill="none" stroke="#c0c0c0" stroke-width="2" d="M1055.4669,-579.751C1052.4204,-578.47 1049.3763,-577.2033 1046.4401,-576 1008.5096,-560.4555 996.7462,-556.7763 955.2817,-540.3045"/>
<polygon fill="#c0c0c0" stroke="#c0c0c0" stroke-width="2" points="956.5478,-537.0414 945.9627,-536.5865 953.9538,-543.543 956.5478,-537.0414"/>
</g>
<!-- 38 -->
<g id="node39" class="node">
<title>38</title>
<path fill="none" stroke="#d86656" stroke-width="2" stroke-dasharray="5,2" d="M1186.6029,-756C1186.6029,-756 1138.2773,-756 1138.2773,-756 1132.2773,-756 1126.2773,-750 1126.2773,-744 1126.2773,-744 1126.2773,-732 1126.2773,-732 1126.2773,-726 1132.2773,-720 1138.2773,-720 1138.2773,-720 1186.6029,-720 1186.6029,-720 1192.6029,-720 1198.6029,-726 1198.6029,-732 1198.6029,-732 1198.6029,-744 1198.6029,-744 1198.6029,-750 1192.6029,-756 1186.6029,-756"/>
<text text-anchor="middle" x="1162.4401" y="-735" font-family="sans" font-size="10.00" fill="#000000">install_bambu</text>
</g>
<!-- 38&#45;&gt;33 -->
<g id="edge68" class="edge">
<title>38-&gt;33</title>
<path fill="none" stroke="#c0c0c0" stroke-width="2" d="M1162.4401,-719.8314C1162.4401,-712.131 1162.4401,-702.9743 1162.4401,-694.4166"/>
<polygon fill="#c0c0c0" stroke="#c0c0c0" stroke-width="2" points="1165.9402,-694.4132 1162.4401,-684.4133 1158.9402,-694.4133 1165.9402,-694.4132"/>
</g>
<!-- 39&#45;&gt;36 -->
<g id="edge72" class="edge">
<title>39-&gt;36</title>
<path fill="none" stroke="#c0c0c0" stroke-width="2" d="M192.1409,-575.8314C189.8703,-568.0463 187.1655,-558.7729 184.646,-550.1347"/>
<polygon fill="#c0c0c0" stroke="#c0c0c0" stroke-width="2" points="187.9707,-549.0332 181.8106,-540.4133 181.2507,-550.9933 187.9707,-549.0332"/>
</g>
<!-- 40&#45;&gt;37 -->
<g id="edge74" class="edge">
<title>40-&gt;37</title>
<path fill="none" stroke="#c0c0c0" stroke-width="2" d="M1244.9996,-653.3335C1240.4556,-651.5291 1235.8319,-649.7074 1231.4401,-648 1197.6988,-634.8824 1159.3116,-620.4113 1130.8109,-609.754"/>
<polygon fill="#c0c0c0" stroke="#c0c0c0" stroke-width="2" points="1131.7586,-606.3718 1121.166,-606.1519 1129.3095,-612.9294 1131.7586,-606.3718"/>
</g>
<!-- 41&#45;&gt;39 -->
<g id="edge77" class="edge">
<title>41-&gt;39</title>
<path fill="none" stroke="#c0c0c0" stroke-width="2" d="M201.1784,-647.8314C200.6436,-640.131 200.0077,-630.9743 199.4135,-622.4166"/>
<polygon fill="#c0c0c0" stroke="#c0c0c0" stroke-width="2" points="202.9032,-622.1467 198.7188,-612.4133 195.9201,-622.6317 202.9032,-622.1467"/>
</g>
<!-- 42&#45;&gt;39 -->
<g id="edge79" class="edge">
<title>42-&gt;39</title>
<path fill="none" stroke="#c0c0c0" stroke-width="2" d="M287.9067,-647.8314C271.3328,-637.9692 250.7449,-625.7186 233.3982,-615.3965"/>
<polygon fill="#c0c0c0" stroke="#c0c0c0" stroke-width="2" points="235.0443,-612.3033 224.6608,-610.1975 231.4647,-618.3189 235.0443,-612.3033"/>
</g>
</g>
</svg>