<?xml version="1.0" encoding="UTF-8" standalone="no"?><!DOCTYPE svg PUBLIC "-//W3C//DTD SVG 1.1//EN" "http://www.w3.org/Graphics/SVG/1.1/DTD/svg11.dtd"><!-- Generated by graphviz version 2.40.1 (20161225.0304)
 --><!-- Title: snakemake_dag Pages: 1 --><svg xmlns="http://www.w3.org/2000/svg" xmlns:xlink="http://www.w3.org/1999/xlink" width="350pt" height="260pt" viewBox="0.00 0.00 350.00 260.00">
<g id="graph0" class="graph" transform="scale(1 1) rotate(0) translate(4 256)">
<title>snakemake_dag</title>
<polygon fill="#ffffff" stroke="transparent" points="-4,4 -4,-256 346,-256 346,4 -4,4"/>
<!-- 0 -->
<g id="node1" class="node">
<title>0</title>
<polygon fill="none" stroke="#000000" stroke-width="1.5" points="198,-252 144,-252 144,-216 198,-216 198,-252"/>
<text text-anchor="middle" x="171" y="-231" font-family="sans" font-size="10.00" fill="#000000">FASTQ</text>
</g>
<!-- 1 -->
<g id="node2" class="node">
<title>1</title>
<polygon fill="none" stroke="#000000" stroke-width="1.5" points="199.0567,-180 142.9433,-180 142.9433,-144 199.0567,-144 199.0567,-180"/>
<text text-anchor="middle" x="171" y="-159" font-family="sans" font-size="10.00" fill="#000000">minimap2</text>
</g>
<!-- 0&#45;&gt;1 -->
<g id="edge1" class="edge">
<title>0-&gt;1</title>
<path fill="none" stroke="#000000" stroke-dasharray="5,2" d="M171,-215.8314C171,-208.131 171,-198.9743 171,-190.4166"/>
<polygon fill="#000000" stroke="#000000" points="174.5001,-190.4132 171,-180.4133 167.5001,-190.4133 174.5001,-190.4132"/>
</g>
<!-- 2 -->
<g id="node3" class="node">
<title>2</title>
<polygon fill="none" stroke="#000000" stroke-width="1.5" points="270,-108 216,-108 216,-72 270,-72 270,-108"/>
<text text-anchor="middle" x="243" y="-87" font-family="sans" font-size="10.00" fill="#000000">bambu</text>
</g>
<!-- 1&#45;&gt;2 -->
<g id="edge2" class="edge">
<title>1-&gt;2</title>
<path fill="none" stroke="#000000" stroke-dasharray="5,2" d="M189.1686,-143.8314C197.7152,-135.2848 208.0557,-124.9443 217.3802,-115.6198"/>
<polygon fill="#000000" stroke="#000000" points="219.9905,-117.9592 224.5867,-108.4133 215.0408,-113.0095 219.9905,-117.9592"/>
</g>
<!-- 3 -->
<g id="node4" class="node">
<title>3</title>
<polygon fill="none" stroke="#000000" stroke-width="1.5" points="54,-108 0,-108 0,-72 54,-72 54,-108"/>
<text text-anchor="middle" x="27" y="-87" font-family="sans" font-size="10.00" fill="#000000">stringtie2</text>
</g>
<!-- 1&#45;&gt;3 -->
<g id="edge3" class="edge">
<title>1-&gt;3</title>
<path fill="none" stroke="#000000" stroke-dasharray="5,2" d="M142.8935,-147.9468C120.1043,-136.5522 87.8282,-120.4141 63.1226,-108.0613"/>
<polygon fill="#000000" stroke="#000000" points="64.5697,-104.8718 54.0602,-103.5301 61.4392,-111.1328 64.5697,-104.8718"/>
</g>
<!-- 4 -->
<g id="node5" class="node">
<title>4</title>
<polygon fill="none" stroke="#000000" stroke-width="1.5" points="126,-108 72,-108 72,-72 126,-72 126,-108"/>
<text text-anchor="middle" x="99" y="-87" font-family="sans" font-size="10.00" fill="#000000">talon</text>
</g>
<!-- 1&#45;&gt;4 -->
<g id="edge4" class="edge">
<title>1-&gt;4</title>
<path fill="none" stroke="#000000" stroke-dasharray="5,2" d="M152.8314,-143.8314C144.2848,-135.2848 133.9443,-124.9443 124.6198,-115.6198"/>
<polygon fill="#000000" stroke="#000000" points="126.9592,-113.0095 117.4133,-108.4133 122.0095,-117.9592 126.9592,-113.0095"/>
</g>
<!-- 5 -->
<g id="node6" class="node">
<title>5</title>
<polygon fill="none" stroke="#000000" stroke-width="1.5" points="198,-108 144,-108 144,-72 198,-72 198,-108"/>
<text text-anchor="middle" x="171" y="-87" font-family="sans" font-size="10.00" fill="#000000">flair</text>
</g>
<!-- 1&#45;&gt;5 -->
<g id="edge5" class="edge">
<title>1-&gt;5</title>
<path fill="none" stroke="#000000" stroke-dasharray="5,2" d="M171,-143.8314C171,-136.131 171,-126.9743 171,-118.4166"/>
<polygon fill="#000000" stroke="#000000" points="174.5001,-118.4132 171,-108.4133 167.5001,-118.4133 174.5001,-118.4132"/>
</g>
<!-- 8 -->
<g id="node9" class="node">
<title>8</title>
<polygon fill="none" stroke="#000000" stroke-width="1.5" points="342,-108 288,-108 288,-72 342,-72 342,-108"/>
<text text-anchor="middle" x="315" y="-87" font-family="sans" font-size="10.00" fill="#000000">RSeQC</text>
</g>
<!-- 1&#45;&gt;8 -->
<g id="edge14" class="edge">
<title>1-&gt;8</title>
<path fill="none" stroke="#000000" stroke-dasharray="5,2" d="M199.1065,-147.9468C221.8957,-136.5522 254.1718,-120.4141 278.8774,-108.0613"/>
<polygon fill="#000000" stroke="#000000" points="280.5608,-111.1328 287.9398,-103.5301 277.4303,-104.8718 280.5608,-111.1328"/>
</g>
<!-- 6 -->
<g id="node7" class="node">
<title>6</title>
<polygon fill="none" stroke="#000000" stroke-width="1.5" points="127.0831,-36 64.9169,-36 64.9169,0 127.0831,0 127.0831,-36"/>
<text text-anchor="middle" x="96" y="-15" font-family="sans" font-size="10.00" fill="#000000">gffcompare</text>
</g>
<!-- 2&#45;&gt;6 -->
<g id="edge6" class="edge">
<title>2-&gt;6</title>
<path fill="none" stroke="#000000" stroke-dasharray="5,2" d="M215.8889,-76.405C212.8919,-74.9139 209.8828,-73.4219 207,-72 183.5611,-60.4393 157.2638,-47.6386 136.1506,-37.4028"/>
<polygon fill="#000000" stroke="#000000" points="137.6696,-34.2496 127.1441,-33.0395 134.6176,-40.5493 137.6696,-34.2496"/>
</g>
<!-- 7 -->
<g id="node8" class="node">
<title>7</title>
<polygon fill="none" stroke="#000000" stroke-width="1.5" points="202.655,-36 145.345,-36 145.345,0 202.655,0 202.655,-36"/>
<text text-anchor="middle" x="174" y="-15" font-family="sans" font-size="10.00" fill="#000000">SQANTI3</text>
</g>
<!-- 2&#45;&gt;7 -->
<g id="edge10" class="edge">
<title>2-&gt;7</title>
<path fill="none" stroke="#000000" stroke-dasharray="5,2" d="M225.5884,-71.8314C217.479,-63.3694 207.6844,-53.1489 198.818,-43.8971"/>
<polygon fill="#000000" stroke="#000000" points="201.0921,-41.2115 191.646,-36.4133 196.0382,-46.0549 201.0921,-41.2115"/>
</g>
<!-- 3&#45;&gt;6 -->
<g id="edge7" class="edge">
<title>3-&gt;6</title>
<path fill="none" stroke="#000000" stroke-dasharray="5,2" d="M44.4116,-71.8314C52.521,-63.3694 62.3156,-53.1489 71.182,-43.8971"/>
<polygon fill="#000000" stroke="#000000" points="73.9618,-46.0549 78.354,-36.4133 68.9079,-41.2115 73.9618,-46.0549"/>
</g>
<!-- 3&#45;&gt;7 -->
<g id="edge11" class="edge">
<title>3-&gt;7</title>
<path fill="none" stroke="#000000" stroke-dasharray="5,2" d="M54.1111,-76.405C57.1081,-74.9139 60.1172,-73.4219 63,-72 87.276,-60.0265 114.6183,-46.7227 136.0914,-36.3161"/>
<polygon fill="#000000" stroke="#000000" points="137.7351,-39.4089 145.2097,-31.9002 134.684,-33.1088 137.7351,-39.4089"/>
</g>
<!-- 4&#45;&gt;6 -->
<g id="edge8" class="edge">
<title>4-&gt;6</title>
<path fill="none" stroke="#000000" stroke-dasharray="5,2" d="M98.243,-71.8314C97.9221,-64.131 97.5406,-54.9743 97.184,-46.4166"/>
<polygon fill="#000000" stroke="#000000" points="100.6806,-46.2589 96.7672,-36.4133 93.6867,-46.5503 100.6806,-46.2589"/>
</g>
<!-- 4&#45;&gt;7 -->
<g id="edge12" class="edge">
<title>4-&gt;7</title>
<path fill="none" stroke="#000000" stroke-dasharray="5,2" d="M117.9257,-71.8314C126.9857,-63.1337 137.9809,-52.5783 147.8265,-43.1265"/>
<polygon fill="#000000" stroke="#000000" points="150.2904,-45.613 155.0804,-36.1628 145.4426,-40.5633 150.2904,-45.613"/>
</g>
<!-- 5&#45;&gt;6 -->
<g id="edge9" class="edge">
<title>5-&gt;6</title>
<path fill="none" stroke="#000000" stroke-dasharray="5,2" d="M152.0743,-71.8314C143.0143,-63.1337 132.0191,-52.5783 122.1735,-43.1265"/>
<polygon fill="#000000" stroke="#000000" points="124.5574,-40.5633 114.9196,-36.1628 119.7096,-45.613 124.5574,-40.5633"/>
</g>
<!-- 5&#45;&gt;7 -->
<g id="edge13" class="edge">
<title>5-&gt;7</title>
<path fill="none" stroke="#000000" stroke-dasharray="5,2" d="M171.757,-71.8314C172.0779,-64.131 172.4594,-54.9743 172.816,-46.4166"/>
<polygon fill="#000000" stroke="#000000" points="176.3133,-46.5503 173.2328,-36.4133 169.3194,-46.2589 176.3133,-46.5503"/>
</g>
</g>
</svg>